<svg xmlns="http://www.w3.org/2000/svg" viewBox="0 0 800 400" role="img" aria-labelledby="title">
  <title>Hospital-level monitoring in the comfort of home</title>
  <rect width="800" height="400" rx="28" fill="#F4F8F6"/><circle cx="205" cy="198" r="148" fill="#DCEFEA"/><path d="M0 341Q190 288 380 338T800 325V400H0Z" fill="#EAF1EB"/>
  <g fill="none" stroke="#176C64" stroke-width="11" stroke-linecap="round" stroke-linejoin="round">
    <path d="M105 183h175v76H105Zm17 76v34m141-34v34M130 208h46q25 0 25 23v28m0-35h55"/><path d="M224 155h34v34h-34Zm17-17v68m-17-34h34" stroke="#D99E55"/>
  </g>
  <g transform="translate(500 20)"><path d="M77 84c-10-31 12-66 48-67 21-27 67-18 76 12 30 9 39 48 17 68l-6 29H81Z" fill="#34251F"/><ellipse cx="153" cy="91" rx="42" ry="49" fill="#C98E6E"/><path d="M111 85c2-44 74-55 87-8-19-9-32-23-38-36-11 22-27 33-49 44Z" fill="#34251F"/><path d="M137 132h33v33h-33Z" fill="#B97C60"/><path d="M111 157q42-22 84 0l22 106H91Z" fill="#132F59"/><path d="m138 151 15 19 16-19" fill="#F5F8F5"/><path d="M111 169 76 235l20 10 40-52m59-24 28 64-19 9-34-48" fill="#132F59" stroke="#132F59" stroke-width="18" stroke-linecap="round"/><path d="m96 245-5 103h48l13-89 12 89h48l-3-103Z" fill="#132F59"/><path d="M87 346h51l-4 17H79q-10-7 8-17Zm77 0h50q17 12 5 17h-55Z" fill="#F7F8F4"/><path d="M182 190h9" stroke="#39B9B1" stroke-width="5" stroke-linecap="round"/><path d="M68 275h48v42H68Z" fill="#102747"/><path d="M69 287h46m-46 8h46" stroke="#B6D95B" stroke-width="4"/></g>
</svg>
